<mxfile host="app.diagrams.net" agent="Mozilla/5.0 (Windows NT 10.0; Win64; x64) AppleWebKit/537.36 (KHTML, like Gecko) Chrome/131.0.0.0 Safari/537.36" version="25.0.3">
  <diagram name="Page-1" id="46ULe40LgjAuQQD5LgL3">
    <mxGraphModel dx="2049" dy="1066" grid="1" gridSize="10" guides="1" tooltips="1" connect="1" arrows="1" fold="1" page="1" pageScale="1" pageWidth="850" pageHeight="1100" math="0" shadow="0">
      <root>
        <mxCell id="0" />
        <mxCell id="1" parent="0" />
        <mxCell id="3bDKqJMdA5MIFM3lt07q-13" style="edgeStyle=orthogonalEdgeStyle;rounded=0;orthogonalLoop=1;jettySize=auto;html=1;entryX=0.5;entryY=0;entryDx=0;entryDy=0;" edge="1" parent="1" source="3bDKqJMdA5MIFM3lt07q-1" target="3bDKqJMdA5MIFM3lt07q-3">
          <mxGeometry relative="1" as="geometry" />
        </mxCell>
        <mxCell id="3bDKqJMdA5MIFM3lt07q-1" value="&lt;font style=&quot;font-size: 24px;&quot;&gt;start&lt;/font&gt;" style="strokeWidth=2;html=1;shape=mxgraph.flowchart.start_1;whiteSpace=wrap;" vertex="1" parent="1">
          <mxGeometry x="375" y="40" width="100" height="60" as="geometry" />
        </mxCell>
        <mxCell id="3bDKqJMdA5MIFM3lt07q-2" value="&lt;font style=&quot;font-size: 24px;&quot;&gt;end&lt;/font&gt;" style="strokeWidth=2;html=1;shape=mxgraph.flowchart.start_1;whiteSpace=wrap;" vertex="1" parent="1">
          <mxGeometry x="375" y="1070" width="100" height="60" as="geometry" />
        </mxCell>
        <mxCell id="3bDKqJMdA5MIFM3lt07q-14" style="edgeStyle=orthogonalEdgeStyle;rounded=0;orthogonalLoop=1;jettySize=auto;html=1;entryX=0.5;entryY=0;entryDx=0;entryDy=0;" edge="1" parent="1" source="3bDKqJMdA5MIFM3lt07q-3" target="3bDKqJMdA5MIFM3lt07q-4">
          <mxGeometry relative="1" as="geometry" />
        </mxCell>
        <mxCell id="3bDKqJMdA5MIFM3lt07q-3" value="file = fgets(&quot;a15-8.txt)" style="rounded=1;whiteSpace=wrap;html=1;absoluteArcSize=1;arcSize=14;strokeWidth=2;" vertex="1" parent="1">
          <mxGeometry x="363" y="150" width="125" height="70" as="geometry" />
        </mxCell>
        <mxCell id="3bDKqJMdA5MIFM3lt07q-15" style="edgeStyle=orthogonalEdgeStyle;rounded=0;orthogonalLoop=1;jettySize=auto;html=1;entryX=0.5;entryY=0;entryDx=0;entryDy=0;" edge="1" parent="1" source="3bDKqJMdA5MIFM3lt07q-4" target="3bDKqJMdA5MIFM3lt07q-5">
          <mxGeometry relative="1" as="geometry" />
        </mxCell>
        <mxCell id="3bDKqJMdA5MIFM3lt07q-17" style="edgeStyle=orthogonalEdgeStyle;rounded=0;orthogonalLoop=1;jettySize=auto;html=1;entryX=0.5;entryY=0;entryDx=0;entryDy=0;" edge="1" parent="1" source="3bDKqJMdA5MIFM3lt07q-4" target="3bDKqJMdA5MIFM3lt07q-7">
          <mxGeometry relative="1" as="geometry" />
        </mxCell>
        <mxCell id="3bDKqJMdA5MIFM3lt07q-4" value="while(fgets(item[count], max_length, file)" style="rhombus;whiteSpace=wrap;html=1;" vertex="1" parent="1">
          <mxGeometry x="314" y="270" width="222" height="140" as="geometry" />
        </mxCell>
        <mxCell id="3bDKqJMdA5MIFM3lt07q-18" style="edgeStyle=orthogonalEdgeStyle;rounded=0;orthogonalLoop=1;jettySize=auto;html=1;entryX=0.5;entryY=0;entryDx=0;entryDy=0;" edge="1" parent="1" source="3bDKqJMdA5MIFM3lt07q-5" target="3bDKqJMdA5MIFM3lt07q-6">
          <mxGeometry relative="1" as="geometry" />
        </mxCell>
        <mxCell id="3bDKqJMdA5MIFM3lt07q-5" value="items[count][strcspn(item[count])] = 0" style="rounded=1;whiteSpace=wrap;html=1;absoluteArcSize=1;arcSize=14;strokeWidth=2;" vertex="1" parent="1">
          <mxGeometry x="590" y="360" width="140" height="70" as="geometry" />
        </mxCell>
        <mxCell id="3bDKqJMdA5MIFM3lt07q-19" style="edgeStyle=orthogonalEdgeStyle;rounded=0;orthogonalLoop=1;jettySize=auto;html=1;entryX=1;entryY=1;entryDx=0;entryDy=0;" edge="1" parent="1" source="3bDKqJMdA5MIFM3lt07q-6" target="3bDKqJMdA5MIFM3lt07q-4">
          <mxGeometry relative="1" as="geometry" />
        </mxCell>
        <mxCell id="3bDKqJMdA5MIFM3lt07q-6" value="count ++" style="rounded=1;whiteSpace=wrap;html=1;absoluteArcSize=1;arcSize=14;strokeWidth=2;" vertex="1" parent="1">
          <mxGeometry x="605" y="450" width="110" height="30" as="geometry" />
        </mxCell>
        <mxCell id="3bDKqJMdA5MIFM3lt07q-7" value="output&lt;br&gt;&quot;Normal &quot;, count, &quot;Item&quot;" style="shape=parallelogram;perimeter=parallelogramPerimeter;whiteSpace=wrap;html=1;fixedSize=1;" vertex="1" parent="1">
          <mxGeometry x="340" y="490" width="171" height="60" as="geometry" />
        </mxCell>
        <mxCell id="3bDKqJMdA5MIFM3lt07q-12" style="edgeStyle=orthogonalEdgeStyle;rounded=0;orthogonalLoop=1;jettySize=auto;html=1;entryX=0.5;entryY=0;entryDx=0;entryDy=0;" edge="1" parent="1" source="3bDKqJMdA5MIFM3lt07q-8" target="3bDKqJMdA5MIFM3lt07q-9">
          <mxGeometry relative="1" as="geometry" />
        </mxCell>
        <mxCell id="3bDKqJMdA5MIFM3lt07q-28" style="edgeStyle=orthogonalEdgeStyle;rounded=0;orthogonalLoop=1;jettySize=auto;html=1;entryX=0.5;entryY=0;entryDx=0;entryDy=0;" edge="1" parent="1" source="3bDKqJMdA5MIFM3lt07q-8" target="3bDKqJMdA5MIFM3lt07q-21">
          <mxGeometry relative="1" as="geometry" />
        </mxCell>
        <mxCell id="3bDKqJMdA5MIFM3lt07q-8" value="for i &amp;lt; count, i++" style="rhombus;whiteSpace=wrap;html=1;" vertex="1" parent="1">
          <mxGeometry x="359" y="580" width="132" height="70" as="geometry" />
        </mxCell>
        <mxCell id="3bDKqJMdA5MIFM3lt07q-11" style="edgeStyle=orthogonalEdgeStyle;rounded=0;orthogonalLoop=1;jettySize=auto;html=1;entryX=1;entryY=1;entryDx=0;entryDy=0;" edge="1" parent="1" source="3bDKqJMdA5MIFM3lt07q-9" target="3bDKqJMdA5MIFM3lt07q-8">
          <mxGeometry relative="1" as="geometry" />
        </mxCell>
        <mxCell id="3bDKqJMdA5MIFM3lt07q-9" value="output&lt;div&gt;items[i]&lt;/div&gt;" style="shape=parallelogram;perimeter=parallelogramPerimeter;whiteSpace=wrap;html=1;fixedSize=1;" vertex="1" parent="1">
          <mxGeometry x="500" y="660" width="171" height="60" as="geometry" />
        </mxCell>
        <mxCell id="3bDKqJMdA5MIFM3lt07q-20" style="edgeStyle=orthogonalEdgeStyle;rounded=0;orthogonalLoop=1;jettySize=auto;html=1;entryX=0.509;entryY=-0.045;entryDx=0;entryDy=0;entryPerimeter=0;" edge="1" parent="1" source="3bDKqJMdA5MIFM3lt07q-7" target="3bDKqJMdA5MIFM3lt07q-8">
          <mxGeometry relative="1" as="geometry" />
        </mxCell>
        <mxCell id="3bDKqJMdA5MIFM3lt07q-29" style="edgeStyle=orthogonalEdgeStyle;rounded=0;orthogonalLoop=1;jettySize=auto;html=1;entryX=0.5;entryY=0;entryDx=0;entryDy=0;" edge="1" parent="1" source="3bDKqJMdA5MIFM3lt07q-21" target="3bDKqJMdA5MIFM3lt07q-22">
          <mxGeometry relative="1" as="geometry" />
        </mxCell>
        <mxCell id="3bDKqJMdA5MIFM3lt07q-21" value="sort(items, count, 1)" style="rounded=1;whiteSpace=wrap;html=1;absoluteArcSize=1;arcSize=14;strokeWidth=2;" vertex="1" parent="1">
          <mxGeometry x="365" y="740" width="120" height="30" as="geometry" />
        </mxCell>
        <mxCell id="3bDKqJMdA5MIFM3lt07q-30" style="edgeStyle=orthogonalEdgeStyle;rounded=0;orthogonalLoop=1;jettySize=auto;html=1;entryX=0.5;entryY=0;entryDx=0;entryDy=0;" edge="1" parent="1" source="3bDKqJMdA5MIFM3lt07q-22" target="3bDKqJMdA5MIFM3lt07q-23">
          <mxGeometry relative="1" as="geometry" />
        </mxCell>
        <mxCell id="3bDKqJMdA5MIFM3lt07q-22" value="output&lt;div&gt;&quot;Sort (Z to A) : &quot;&lt;/div&gt;" style="shape=parallelogram;perimeter=parallelogramPerimeter;whiteSpace=wrap;html=1;fixedSize=1;" vertex="1" parent="1">
          <mxGeometry x="340" y="810" width="171" height="60" as="geometry" />
        </mxCell>
        <mxCell id="3bDKqJMdA5MIFM3lt07q-25" style="edgeStyle=orthogonalEdgeStyle;rounded=0;orthogonalLoop=1;jettySize=auto;html=1;entryX=0.5;entryY=0;entryDx=0;entryDy=0;" edge="1" parent="1" source="3bDKqJMdA5MIFM3lt07q-23" target="3bDKqJMdA5MIFM3lt07q-24">
          <mxGeometry relative="1" as="geometry" />
        </mxCell>
        <mxCell id="3bDKqJMdA5MIFM3lt07q-23" value="for i &amp;lt; count, i++" style="rhombus;whiteSpace=wrap;html=1;" vertex="1" parent="1">
          <mxGeometry x="359" y="900" width="132" height="70" as="geometry" />
        </mxCell>
        <mxCell id="3bDKqJMdA5MIFM3lt07q-26" style="edgeStyle=orthogonalEdgeStyle;rounded=0;orthogonalLoop=1;jettySize=auto;html=1;entryX=1;entryY=1;entryDx=0;entryDy=0;" edge="1" parent="1" source="3bDKqJMdA5MIFM3lt07q-24" target="3bDKqJMdA5MIFM3lt07q-23">
          <mxGeometry relative="1" as="geometry" />
        </mxCell>
        <mxCell id="3bDKqJMdA5MIFM3lt07q-24" value="output&lt;div&gt;items[i]&lt;/div&gt;" style="shape=parallelogram;perimeter=parallelogramPerimeter;whiteSpace=wrap;html=1;fixedSize=1;" vertex="1" parent="1">
          <mxGeometry x="511" y="990" width="171" height="60" as="geometry" />
        </mxCell>
        <mxCell id="3bDKqJMdA5MIFM3lt07q-27" style="edgeStyle=orthogonalEdgeStyle;rounded=0;orthogonalLoop=1;jettySize=auto;html=1;entryX=0.5;entryY=0;entryDx=0;entryDy=0;entryPerimeter=0;" edge="1" parent="1" source="3bDKqJMdA5MIFM3lt07q-23" target="3bDKqJMdA5MIFM3lt07q-2">
          <mxGeometry relative="1" as="geometry" />
        </mxCell>
        <mxCell id="3bDKqJMdA5MIFM3lt07q-39" style="edgeStyle=orthogonalEdgeStyle;rounded=0;orthogonalLoop=1;jettySize=auto;html=1;entryX=0.5;entryY=0;entryDx=0;entryDy=0;" edge="1" parent="1" source="3bDKqJMdA5MIFM3lt07q-31" target="3bDKqJMdA5MIFM3lt07q-32">
          <mxGeometry relative="1" as="geometry" />
        </mxCell>
        <mxCell id="3bDKqJMdA5MIFM3lt07q-31" value="&lt;font style=&quot;font-size: 14px;&quot;&gt;sort(arr[][Max_Length], n, ascending)&lt;/font&gt;" style="strokeWidth=2;html=1;shape=mxgraph.flowchart.start_1;whiteSpace=wrap;" vertex="1" parent="1">
          <mxGeometry x="860" y="40" width="180" height="60" as="geometry" />
        </mxCell>
        <mxCell id="3bDKqJMdA5MIFM3lt07q-40" style="edgeStyle=orthogonalEdgeStyle;rounded=0;orthogonalLoop=1;jettySize=auto;html=1;entryX=0.5;entryY=0;entryDx=0;entryDy=0;" edge="1" parent="1" source="3bDKqJMdA5MIFM3lt07q-32" target="3bDKqJMdA5MIFM3lt07q-33">
          <mxGeometry relative="1" as="geometry" />
        </mxCell>
        <mxCell id="3bDKqJMdA5MIFM3lt07q-32" value="for i &amp;lt; n - 1, i++" style="rhombus;whiteSpace=wrap;html=1;" vertex="1" parent="1">
          <mxGeometry x="879.5" y="170" width="141" height="70" as="geometry" />
        </mxCell>
        <mxCell id="3bDKqJMdA5MIFM3lt07q-41" style="edgeStyle=orthogonalEdgeStyle;rounded=0;orthogonalLoop=1;jettySize=auto;html=1;entryX=0.5;entryY=0;entryDx=0;entryDy=0;" edge="1" parent="1" source="3bDKqJMdA5MIFM3lt07q-33" target="3bDKqJMdA5MIFM3lt07q-34">
          <mxGeometry relative="1" as="geometry" />
        </mxCell>
        <mxCell id="3bDKqJMdA5MIFM3lt07q-46" style="edgeStyle=orthogonalEdgeStyle;rounded=0;orthogonalLoop=1;jettySize=auto;html=1;entryX=1;entryY=1;entryDx=0;entryDy=0;" edge="1" parent="1" source="3bDKqJMdA5MIFM3lt07q-33" target="3bDKqJMdA5MIFM3lt07q-32">
          <mxGeometry relative="1" as="geometry" />
        </mxCell>
        <mxCell id="3bDKqJMdA5MIFM3lt07q-33" value="for j = i + 1, j &amp;lt; n, j++" style="rhombus;whiteSpace=wrap;html=1;" vertex="1" parent="1">
          <mxGeometry x="1030" y="260" width="141" height="70" as="geometry" />
        </mxCell>
        <mxCell id="3bDKqJMdA5MIFM3lt07q-42" style="edgeStyle=orthogonalEdgeStyle;rounded=0;orthogonalLoop=1;jettySize=auto;html=1;entryX=0.5;entryY=0;entryDx=0;entryDy=0;" edge="1" parent="1" source="3bDKqJMdA5MIFM3lt07q-34" target="3bDKqJMdA5MIFM3lt07q-35">
          <mxGeometry relative="1" as="geometry" />
        </mxCell>
        <mxCell id="3bDKqJMdA5MIFM3lt07q-34" value="(ascending &amp;amp;&amp;amp; strcmp(arr[i], arr[j]) &amp;gt; 0) || (!ascending &amp;amp;&amp;amp; strcmp(arr[i], arr[j]) &amp;lt; 0" style="rhombus;whiteSpace=wrap;html=1;" vertex="1" parent="1">
          <mxGeometry x="1180" y="360" width="270" height="120" as="geometry" />
        </mxCell>
        <mxCell id="3bDKqJMdA5MIFM3lt07q-43" style="edgeStyle=orthogonalEdgeStyle;rounded=0;orthogonalLoop=1;jettySize=auto;html=1;entryX=0.5;entryY=0;entryDx=0;entryDy=0;" edge="1" parent="1" source="3bDKqJMdA5MIFM3lt07q-35" target="3bDKqJMdA5MIFM3lt07q-36">
          <mxGeometry relative="1" as="geometry" />
        </mxCell>
        <mxCell id="3bDKqJMdA5MIFM3lt07q-35" value="strcpy(temp, arr[i])" style="rounded=1;whiteSpace=wrap;html=1;absoluteArcSize=1;arcSize=14;strokeWidth=2;" vertex="1" parent="1">
          <mxGeometry x="1260" y="535" width="110" height="30" as="geometry" />
        </mxCell>
        <mxCell id="3bDKqJMdA5MIFM3lt07q-44" style="edgeStyle=orthogonalEdgeStyle;rounded=0;orthogonalLoop=1;jettySize=auto;html=1;entryX=0.5;entryY=0;entryDx=0;entryDy=0;" edge="1" parent="1" source="3bDKqJMdA5MIFM3lt07q-36" target="3bDKqJMdA5MIFM3lt07q-37">
          <mxGeometry relative="1" as="geometry" />
        </mxCell>
        <mxCell id="3bDKqJMdA5MIFM3lt07q-36" value="strcpy(arr[i], arr[j])" style="rounded=1;whiteSpace=wrap;html=1;absoluteArcSize=1;arcSize=14;strokeWidth=2;" vertex="1" parent="1">
          <mxGeometry x="1260" y="600" width="110" height="30" as="geometry" />
        </mxCell>
        <mxCell id="3bDKqJMdA5MIFM3lt07q-45" style="edgeStyle=orthogonalEdgeStyle;rounded=0;orthogonalLoop=1;jettySize=auto;html=1;entryX=1;entryY=1;entryDx=0;entryDy=0;" edge="1" parent="1" source="3bDKqJMdA5MIFM3lt07q-37" target="3bDKqJMdA5MIFM3lt07q-33">
          <mxGeometry relative="1" as="geometry" />
        </mxCell>
        <mxCell id="3bDKqJMdA5MIFM3lt07q-37" value="strcpy(arr[j], temp)" style="rounded=1;whiteSpace=wrap;html=1;absoluteArcSize=1;arcSize=14;strokeWidth=2;" vertex="1" parent="1">
          <mxGeometry x="1260" y="670" width="110" height="30" as="geometry" />
        </mxCell>
        <mxCell id="3bDKqJMdA5MIFM3lt07q-38" value="&lt;font style=&quot;font-size: 24px;&quot;&gt;end&lt;/font&gt;" style="strokeWidth=2;html=1;shape=mxgraph.flowchart.start_1;whiteSpace=wrap;" vertex="1" parent="1">
          <mxGeometry x="900" y="620" width="100" height="60" as="geometry" />
        </mxCell>
        <mxCell id="3bDKqJMdA5MIFM3lt07q-47" style="edgeStyle=orthogonalEdgeStyle;rounded=0;orthogonalLoop=1;jettySize=auto;html=1;entryX=0.5;entryY=0;entryDx=0;entryDy=0;entryPerimeter=0;" edge="1" parent="1" source="3bDKqJMdA5MIFM3lt07q-32" target="3bDKqJMdA5MIFM3lt07q-38">
          <mxGeometry relative="1" as="geometry" />
        </mxCell>
      </root>
    </mxGraphModel>
  </diagram>
</mxfile>
